# File created by Blade
# Date/Time:  Thu Jan 15 19:03:44 2015
#---------------------------------------------------------
:version 1.10
:name HOM
:units
  mass 1.0
  length 1.000000
  angle deg
:documentation
     Acclaim Skeleton File
:root
   axis xyz
   order TX TY TZ RX RY RZ
   position 0.000000 0.000000 0.000000
   orientation 0 0 0
:bonedata
   begin
      id 1
      name Spine_dum
      direction 0.000000 1.000000 0.000000
      length 4.354460
      axis 0.0 0.0 0.0 xyz
   end
   begin
      id 2
      name LeftUpLeg_dum
      direction 1.000000 0.000000 0.000000
      length 4.291077
      axis 0.0 0.0 0.0 xyz
   end
   begin
      id 3
      name RightUpLeg_dum
      direction -1.000000 0.000000 0.000000
      length 4.291077
      axis 0.0 0.0 0.0 xyz
   end
   begin
      id 4
      name Spine
      direction 0.000000 1.000000 0.000000
      length 0.000000
      axis 0.0 0.0 0.0 xyz
      dof rx ry rz
   end
   begin
      id 5
      name Spine_dum1
      direction 0.000000 1.000000 0.000000
      length 16.581769
      axis 0.0 0.0 0.0 xyz
   end
   begin
      id 6
      name Spine_dum2
      direction 0.000000 1.000000 0.000000
      length 12.903700
      axis 0.0 0.0 0.0 xyz
   end
   begin
      id 7
      name Spine_dum3
      direction 0.000000 1.000000 0.000000
      length 12.903700
      axis 0.0 0.0 0.0 xyz
   end
   begin
      id 8
      name Head
      direction 0.000000 1.000000 0.000000
      length 4.527550
      axis 0.0 0.0 0.0 xyz
      dof rx ry rz
   end
   begin
      id 9
      name LeftShoulder
      direction 1.000000 0.000000 0.000000
      length 6.942033
      axis 0.0 0.0 -90.0 xyz
      dof rx ry rz
   end
   begin
      id 10
      name LeftArm
      direction 1.000000 0.000000 0.000000
      length 11.010391
      axis 0.0 0.0 -90.0 xyz
      dof rx ry rz
   end
   begin
      id 11
      name LeftForeArm
      direction 1.000000 0.000000 0.000000
      length 8.054994
      axis 0.0 0.0 -90.0 xyz
      dof rz ry rx
   end
   begin
      id 12
      name LeftHand
      direction 0.000000 0.000000 0.000000
      length 0.000000
      axis 0.0 0.0 -90.0 xyz
      dof rx ry rz
   end
   begin
      id 13
      name LeftHand_dum1
      direction 0.000000 0.000000 0.000000
      length 0.000000
      axis 0.0 0.0 -90.0 xyz
   end
   begin
      id 14
      name LeftHand_dum2
      direction 1.000000 0.000000 0.000000
      length 3.937000
      axis 0.0 0.0 -90.0 xyz
   end
   begin
      id 15
      name LeftHandThumb1
      direction 0.000000 0.000000 1.000000
      length 3.937000
      axis 0.0 0.0 -90.0 xyz
      dof rx ry rz
   end
   begin
      id 16
      name RightShoulder
      direction -1.000000 0.000000 0.000000
      length 6.942033
      axis 0.0 0.0 90.0 xyz
      dof rx ry rz
   end
   begin
      id 17
      name RightArm
      direction -1.000000 0.000000 0.000000
      length 11.010391
      axis 0.0 0.0 90.0 xyz
      dof rx ry rz
   end
   begin
      id 18
      name RightForeArm
      direction -1.000000 0.000000 0.000000
      length 8.054994
      axis 0.0 0.0 90.0 xyz
      dof rz ry rx
   end
   begin
      id 19
      name RightHand
      direction 0.000000 0.000000 0.000000
      length 0.000000
      axis 0.0 0.0 90.0 xyz
      dof rx ry rz
   end
   begin
      id 20
      name RightHand_dum1
      direction 0.000000 0.000000 0.000000
      length 0.000000
      axis 0.0 0.0 90.0 xyz
   end
   begin
      id 21
      name RightHand_dum2
      direction -1.000000 0.000000 0.000000
      length 3.937000
      axis 0.0 0.0 90.0 xyz
   end
   begin
      id 22
      name RightHandThumb1
      direction 0.000000 0.000000 1.000000
      length 3.937000
      axis 0.0 0.0 90.0 xyz
      dof rx ry rz
   end
   begin
      id 23
      name LeftUpLeg
      direction 0.000000 -1.000000 0.000000
      length 17.039958
      axis 0.0 0.0 0.0 xyz
      dof rx ry rz
   end
   begin
      id 24
      name LeftLeg
      direction 0.000000 -1.000000 0.000000
      length 16.939743
      axis 0.0 0.0 0.0 xyz
      dof rx ry rz
   end
   begin
      id 25
      name LeftFoot
      direction 0.000000 -0.258819 0.965926
      length 5.235044
      axis 15.0 0.0 0.0 xyz
      dof rx ry rz
   end
   begin
      id 26
      name LeftToeBase
      direction 0.000000 0.000000 1.000000
      length 2.952750
      axis 0.0 0.0 0.0 xyz
      dof rx ry rz
   end
   begin
      id 27
      name RightUpLeg
      direction 0.000000 -1.000000 0.000000
      length 17.039958
      axis 0.0 0.0 0.0 xyz
      dof rx ry rz
   end
   begin
      id 28
      name RightLeg
      direction 0.000000 -1.000000 0.000000
      length 16.939743
      axis 0.0 0.0 0.0 xyz
      dof rx ry rz
   end
   begin
      id 29
      name RightFoot
      direction 0.000000 -0.258819 0.965926
      length 5.235044
      axis 15.0 0.0 0.0 xyz
      dof rx ry rz
   end
   begin
      id 30
      name RightToeBase
      direction 0.000000 0.000000 1.000000
      length 2.952750
      axis 0.0 0.0 0.0 xyz
      dof rx ry rz
   end
:hierarchy
   begin
      root Spine_dum LeftUpLeg_dum RightUpLeg_dum
      Spine_dum Spine
      LeftUpLeg_dum LeftUpLeg
      RightUpLeg_dum RightUpLeg
      Spine Spine_dum1 Spine_dum2 Spine_dum3
      Spine_dum1 Head
      Spine_dum2 LeftShoulder
      Spine_dum3 RightShoulder
      LeftShoulder LeftArm
      LeftArm LeftForeArm
      LeftForeArm LeftHand
      LeftHand LeftHand_dum1 LeftHand_dum2
      LeftHand_dum1 LeftHandThumb1
      RightShoulder RightArm
      RightArm RightForeArm
      RightForeArm RightHand
      RightHand RightHand_dum1 RightHand_dum2
      RightHand_dum1 RightHandThumb1
      LeftUpLeg LeftLeg
      LeftLeg LeftFoot
      LeftFoot LeftToeBase
      RightUpLeg RightLeg
      RightLeg RightFoot
      RightFoot RightToeBase
   end

# File created by Blade
# Date/Time:  Thu Jan 15 19:03:33 2015
# Frame Rate: 120.000 fps
#------------------------------------------------------
:FULLY-SPECIFIED
:DEGREES
583
root 3.536535 35.670329 -10.719854 -170.763845 -40.213540 -182.916575
Spine -14.693011 46.826809 -11.990488
Head 6.574458 -0.655028 8.254823
LeftShoulder -12.533958 11.029530 12.077659
LeftArm -7.995518 -46.182069 -16.984240
LeftForeArm -0.000000 23.333878 10.376584
LeftHand 7.376760 0.000000 6.684515
LeftHandThumb1 -26.253704 33.147579 0.000000
RightShoulder -16.857854 1.592049 -22.655310
RightArm 9.625110 25.318057 22.376231
RightForeArm 0.000000 -51.957049 29.880060
RightHand 7.038570 -0.000000 -9.178141
RightHandThumb1 -24.326973 -32.862282 -0.000000
LeftUpLeg -13.023200 -14.680554 0.420636
LeftLeg 7.219222 -0.000000 -0.000000
LeftFoot -12.530831 11.071075 -10.554031
LeftToeBase 21.359651 -0.000000 -0.000000
RightUpLeg 0.834911 -26.383288 3.293185
RightLeg -1.049352 -0.000000 0.000000
RightFoot -22.830142 -40.843116 15.292115
RightToeBase 16.812014 -0.000000 -0.000000
584
root 3.546576 35.672793 -10.742992 -170.765137 -39.366027 -182.853099
Spine -14.632064 46.385315 -11.934498
Head 6.464959 -0.856191 8.244495
LeftShoulder -12.535344 11.011230 12.017756
LeftArm -7.924240 -45.907537 -16.963348
LeftForeArm -0.000000 23.130322 10.563517
LeftHand 7.413255 -0.000000 6.759462
LeftHandThumb1 -26.253704 33.147579 0.000000
RightShoulder -16.963847 1.579362 -22.636079
RightArm 9.481457 25.372275 22.215557
RightForeArm 0.000000 -51.903749 29.801476
RightHand 7.155278 0.000000 -9.284267
RightHandThumb1 -24.326973 -32.862282 -0.000000
LeftUpLeg -12.858923 -14.140994 0.388819
LeftLeg 7.077349 -0.000000 -0.000000
LeftFoot -12.666073 11.388487 -10.532330
LeftToeBase 21.141101 -0.000000 -0.000000
RightUpLeg 0.821612 -26.022765 3.275420
RightLeg -1.210343 -0.000000 0.000000
RightFoot -22.565423 -40.484520 15.016103
RightToeBase 16.812029 -0.000000 -0.000000
585
root 3.554762 35.676021 -10.763978 -170.772909 -38.502970 -182.795918
Spine -14.543697 45.948515 -11.844359
Head 6.399909 -0.943310 8.268987
LeftShoulder -12.493455 11.035536 11.913009
LeftArm -7.849342 -45.780439 -16.868478
LeftForeArm -0.000000 23.074451 10.615839
LeftHand 7.403360 0.000000 6.762386
LeftHandThumb1 -26.253704 33.147579 0.000000
RightShoulder -17.080858 1.516702 -22.636441
RightArm 9.370611 25.466644 22.100122
RightForeArm -0.000000 -52.163309 29.805671
RightHand 7.114132 0.000000 -9.068845
RightHandThumb1 -24.326973 -32.862282 -0.000000
LeftUpLeg -12.688513 -13.575597 0.341354
LeftLeg 6.949391 -0.000000 -0.000000
LeftFoot -12.796994 11.683299 -10.544509
LeftToeBase 21.054727 -0.000000 -0.000000
RightUpLeg 0.810707 -25.638407 3.238944
RightLeg -1.349339 -0.000000 0.000000
RightFoot -22.297448 -40.125251 14.715360
RightToeBase 16.801249 -0.000000 -0.000000
586
root 3.562579 35.678193 -10.783440 -170.780230 -37.607039 -182.738757
Spine -14.436166 45.481481 -11.735903
Head 6.271933 -1.116707 8.218209
LeftShoulder -12.568049 11.061075 11.810403
LeftArm -7.718145 -45.749476 -16.849105
LeftForeArm -0.000000 23.253448 10.784380
LeftHand 7.256536 -0.000000 6.584351
LeftHandThumb1 -26.253704 33.147579 0.000000
RightShoulder -17.162025 1.518866 -22.624727
RightArm 9.236303 25.507776 21.913785
RightForeArm -0.000000 -52.242947 29.813388
RightHand 7.171780 -0.000000 -8.932324
RightHandThumb1 -24.326973 -32.862282 -0.000000
LeftUpLeg -12.510649 -12.964980 0.285002
LeftLeg 6.813824 -0.000000 -0.000000
LeftFoot -12.941565 11.974840 -10.503753
LeftToeBase 21.134775 -0.000000 -0.000000
RightUpLeg 0.807461 -25.231490 3.199416
RightLeg -1.513843 -0.000000 0.000000
RightFoot -22.019226 -39.758159 14.406967
RightToeBase 16.821791 -0.000000 -0.000000
587
root 3.569938 35.680574 -10.805809 -170.809405 -36.735291 -182.676699
Spine -14.290946 45.000361 -11.595331
Head 6.137204 -1.268990 8.170679
LeftShoulder -12.585321 11.186418 11.707584
LeftArm -7.603682 -45.787969 -16.847503
LeftForeArm -0.000000 23.388224 10.925298
LeftHand 7.168359 -0.000000 6.565681
LeftHandThumb1 -26.253704 33.147579 0.000000
RightShoulder -17.252887 1.505410 -22.632406
RightArm 9.073262 25.580194 21.766723
RightForeArm -0.000000 -52.272256 29.836022
RightHand 7.107332 0.000000 -8.856528
RightHandThumb1 -24.326973 -32.862282 -0.000000
LeftUpLeg -12.300036 -12.376665 0.237453
LeftLeg 6.653968 -0.000000 -0.000000
LeftFoot -13.066466 12.256308 -10.466739
LeftToeBase 21.089220 -0.000000 -0.000000
RightUpLeg 0.843116 -24.799613 3.157211
RightLeg -1.699777 -0.000000 0.000000
RightFoot -21.781392 -39.418791 14.186106
RightToeBase 16.802056 -0.000000 -0.000000
588
root 3.579333 35.682707 -10.824656 -170.829426 -35.852923 -182.613089
Spine -14.138273 44.520731 -11.457046
Head 5.982303 -1.410052 8.120666
LeftShoulder -12.605266 11.176862 11.615416
LeftArm -7.484361 -45.602323 -16.838970
LeftForeArm -0.000000 23.369953 11.030533
LeftHand 7.155864 -0.000000 6.863092
LeftHandThumb1 -26.253704 33.147579 0.000000
RightShoulder -17.399826 1.388923 -22.589603
RightArm 9.014196 25.806801 21.654729
RightForeArm 0.000000 -52.361467 29.890895
RightHand 7.148678 -0.000000 -8.689834
RightHandThumb1 -24.326973 -32.862282 -0.000000
LeftUpLeg -12.120484 -11.772870 0.194457
LeftLeg 6.525190 -0.000000 -0.000000
LeftFoot -13.203009 12.516565 -10.459890
LeftToeBase 21.068603 -0.000000 -0.000000
RightUpLeg 0.858921 -24.441758 3.120356
RightLeg -1.878951 -0.000000 0.000000
RightFoot -21.478037 -39.006387 13.864886
RightToeBase 16.822930 -0.000000 -0.000000
589
root 3.589094 35.683802 -10.844250 -170.828762 -34.933397 -182.563177
Spine -14.002198 44.038165 -11.345234
Head 5.795604 -1.568553 8.034891
LeftShoulder -12.693342 11.323445 11.482212
LeftArm -7.207747 -45.589949 -16.929983
LeftForeArm -0.000000 23.572853 11.101611
LeftHand 7.110415 0.000000 7.155072
LeftHandThumb1 -26.253704 33.147579 0.000000
RightShoulder -17.482742 1.331703 -22.562515
RightArm 8.827775 26.009060 21.491265
RightForeArm 0.000000 -52.547166 30.004591
RightHand 7.483857 -0.000000 -9.098801
RightHandThumb1 -24.326973 -32.862282 -0.000000
LeftUpLeg -11.939062 -11.122961 0.137133
LeftLeg 6.380278 -0.000000 -0.000000
LeftFoot -13.338004 12.766756 -10.429197
LeftToeBase 21.038242 -0.000000 -0.000000
RightUpLeg 0.939268 -23.649856 3.063992
RightLeg -2.191155 -0.000000 0.000000
RightFoot -21.256642 -38.905959 13.719236
RightToeBase 16.803217 -0.000000 -0.000000
590
root 3.596079 35.685204 -10.862349 -170.861567 -34.003770 -182.525472
Spine -13.797233 43.547565 -11.165029
Head 5.636979 -1.697362 7.929888
LeftShoulder -12.631046 11.328052 11.323051
LeftArm -7.298068 -45.269003 -16.734578
LeftForeArm -0.000000 23.305533 11.289926
LeftHand 7.360891 0.000000 7.107860
LeftHandThumb1 -26.253704 33.147579 0.000000
RightShoulder -17.634939 1.371443 -22.614422
RightArm 8.701878 26.020671 21.386896
RightForeArm -0.000000 -52.699024 30.151206
RightHand 7.638464 -0.000000 -9.349469
RightHandThumb1 -24.326973 -32.862282 -0.000000
LeftUpLeg -11.711555 -10.433898 0.050064
LeftLeg 6.228618 -0.000000 -0.000000
LeftFoot -13.458087 12.996616 -10.423648
LeftToeBase 21.048476 -0.000000 -0.000000
RightUpLeg 0.991270 -23.192088 2.982753
RightLeg -2.379146 -0.000000 0.000000
RightFoot -20.974128 -38.543935 13.410427
RightToeBase 16.805635 -0.000000 -0.000000
591
root 3.602590 35.687355 -10.878960 -170.886722 -33.090035 -182.489845
Spine -13.622296 43.013201 -10.997772
Head 5.542203 -1.836160 7.866422
LeftShoulder -12.647237 11.516831 11.237363
LeftArm -7.135311 -45.127559 -16.852579
LeftForeArm -0.000000 23.526412 11.435576
LeftHand 7.220087 0.000000 6.984235
LeftHandThumb1 -26.253704 33.147579 0.000000
RightShoulder -17.669021 1.319756 -22.617431
RightArm 8.459302 26.267350 21.266250
RightForeArm -0.000000 -52.714612 30.287931
RightHand 7.851533 -0.000000 -9.649561
RightHandThumb1 -24.326973 -32.862282 -0.000000
LeftUpLeg -11.492658 -9.785764 -0.030061
LeftLeg 6.073483 -0.000000 -0.000000
LeftFoot -13.576701 13.246382 -10.412270
LeftToeBase 21.085681 -0.000000 -0.000000
RightUpLeg 1.019635 -22.813745 2.915388
RightLeg -2.561392 -0.000000 0.000000
RightFoot -20.700557 -38.175510 13.117484
RightToeBase 16.811880 -0.000000 -0.000000
592
root 3.610150 35.689709 -10.896124 -170.901240 -32.155746 -182.459179
Spine -13.420445 42.478523 -10.841148
Head 5.311063 -2.009543 7.775241
LeftShoulder -12.766006 11.682724 11.057205
LeftArm -6.835264 -44.966666 -16.932984
LeftForeArm 0.000000 23.868279 11.514562
LeftHand 7.252905 -0.000000 6.804521
LeftHandThumb1 -26.253704 33.147579 0.000000
RightShoulder -17.770501 1.282946 -22.593714
RightArm 8.219923 26.479394 21.122486
RightForeArm -0.000000 -52.750891 30.593770
RightHand 8.349673 0.000000 -10.164140
RightHandThumb1 -24.326973 -32.862282 -0.000000
LeftUpLeg -11.274556 -9.095371 -0.117798
LeftLeg 5.910750 -0.000000 -0.000000
LeftFoot -13.678978 13.466659 -10.428591
LeftToeBase 21.068536 -0.000000 -0.000000
RightUpLeg 1.033027 -22.384925 2.843690
RightLeg -2.725877 -0.000000 0.000000
RightFoot -20.443685 -37.821881 12.845993
RightToeBase 16.796015 -0.000000 -0.000000
